<svg width="28" height="40" viewBox="0 0 28 40" fill="none" xmlns="http://www.w3.org/2000/svg">
<path d="M13.7892 27.7586C11.5215 27.7586 9.28888 27.1994 7.289 26.1304C5.28912 25.0615 3.58373 23.5158 2.3239 21.6303C1.06406 19.7448 0.28867 17.5778 0.0664021 15.321C-0.155866 13.0643 0.181852 10.7876 1.04964 8.69258C1.91743 6.59755 3.2885 4.74887 5.04141 3.31029C6.79432 1.87172 8.87496 0.887648 11.099 0.445254C13.3231 0.00285882 15.6219 0.115794 17.7919 0.774055C19.9619 1.43232 21.9361 2.61559 23.5396 4.21905L17.9026 9.85603C17.2261 9.17957 16.3933 8.68038 15.4778 8.40268C14.5624 8.12497 13.5925 8.07733 12.6543 8.26396C11.716 8.4506 10.8382 8.86575 10.0987 9.47265C9.35922 10.0795 8.7808 10.8594 8.4147 11.7433C8.04861 12.6271 7.90613 13.5876 7.9999 14.5396C8.09367 15.4917 8.42079 16.4059 8.95228 17.2014C9.48377 17.9968 10.2032 18.6489 11.0469 19.0998C11.8906 19.5508 12.8325 19.7867 13.7892 19.7867V27.7586Z" fill="#141414"/>
<path d="M13.5736 11.7823C15.8412 11.7823 18.0739 12.3415 20.0738 13.4105C22.0736 14.4794 23.779 16.0251 25.0389 17.9106C26.2987 19.7961 27.0741 21.9631 27.2964 24.2199C27.5186 26.4766 27.1809 28.7533 26.3131 30.8483C25.4453 32.9433 24.0743 34.792 22.3213 36.2306C20.5684 37.6692 18.4878 38.6533 16.2637 39.0956C14.0397 39.538 11.7408 39.4251 9.57082 38.7668C7.40082 38.1086 5.42666 36.9253 3.82319 35.3218L9.46017 29.6849C10.1366 30.3613 10.9695 30.8605 11.8849 31.1382C12.8004 31.4159 13.7702 31.4636 14.7085 31.2769C15.6468 31.0903 16.5245 30.6751 17.264 30.0683C18.0035 29.4614 18.582 28.6814 18.9481 27.7976C19.3142 26.9138 19.4566 25.9533 19.3629 25.0012C19.2691 24.0492 18.942 23.135 18.4105 22.3395C17.879 21.5441 17.1595 20.892 16.3158 20.4411C15.4721 19.9901 14.5303 19.7542 13.5736 19.7542V11.7823Z" fill="#141414"/>
</svg>
