<svg width="318" height="116" viewBox="0 0 318 116" fill="none" xmlns="http://www.w3.org/2000/svg">
<path d="M107.382 64.6079C107.308 67.7817 108.212 70.1621 110.092 71.749C111.971 73.3359 114.852 74.1294 118.734 74.1294C125.033 74.1294 128.182 72.2007 128.182 68.3433C128.182 66.9272 127.78 65.8042 126.974 64.9741C126.193 64.144 124.972 63.5459 123.312 63.1797C122.115 62.9111 120.272 62.6426 117.782 62.374C115.292 62.0811 113.705 61.8735 113.021 61.7515C109.872 61.1899 107.345 59.9692 105.441 58.0894C103.536 56.1851 102.584 53.707 102.584 50.6553C102.584 47.3105 103.915 44.5273 106.576 42.3057C109.261 40.0596 112.96 38.9365 117.672 38.9365C122.726 38.9365 126.754 40.3037 129.757 43.0381C132.784 45.748 134.335 49.3369 134.408 53.8047H127.706C127.511 47.7988 124.142 44.7959 117.599 44.7959C114.913 44.7959 112.826 45.2964 111.337 46.2974C109.872 47.2983 109.139 48.6777 109.139 50.4355C109.139 53.1943 110.69 54.8423 113.79 55.3794C114.962 55.5991 116.671 55.8433 118.917 56.1118C121.163 56.3804 122.75 56.5879 123.678 56.7344C127.169 57.3691 129.94 58.6631 131.991 60.6162C134.042 62.5449 135.067 65.0718 135.067 68.1968C135.067 71.7124 133.627 74.5688 130.746 76.7661C127.889 78.9634 123.837 80.062 118.588 80.062C116.683 80.062 114.889 79.9033 113.204 79.5859C111.544 79.293 109.921 78.7681 108.334 78.0112C106.771 77.2544 105.428 76.3022 104.305 75.1548C103.207 74.0073 102.328 72.5303 101.669 70.7236C101.01 68.917 100.692 66.8784 100.717 64.6079H107.382Z" fill="#141414"/>
<path d="M153.268 80.062C149.24 80.062 145.944 79.0854 143.38 77.1323C140.817 75.1792 139.535 72.3472 139.535 68.6362C139.535 65.6577 140.609 63.082 142.758 60.9092C144.906 58.7363 147.787 57.4668 151.4 57.1006C152.767 56.9541 154.33 56.8076 156.088 56.6611C157.845 56.4902 159.225 56.3682 160.226 56.2949C161.227 56.1973 162.264 56.0752 163.339 55.9287C164.413 55.7822 165.267 55.6113 165.902 55.416C166.561 55.2207 167.074 54.9766 167.44 54.6836V53.5117C167.44 50.8994 166.488 48.8364 164.584 47.3228C162.704 45.7847 160.287 45.0156 157.333 45.0156C154.257 45.0156 151.766 45.7725 149.862 47.2861C147.958 48.7998 146.969 50.9727 146.896 53.8047H140.231C140.304 49.459 141.976 45.8945 145.248 43.1113C148.519 40.3281 152.596 38.9365 157.479 38.9365C160.409 38.9365 163.107 39.5103 165.573 40.6577C168.038 41.7808 170.052 43.4897 171.615 45.7847C173.202 48.0796 174.02 50.7529 174.069 53.8047V68.4897C174.069 71.5903 175.607 73.1406 178.683 73.1406H179.598V79H177.584C175.485 79 173.629 78.5361 172.018 77.6084C170.406 76.6807 169.21 75.2646 168.429 73.3604C167.062 75.4355 165.035 77.0713 162.35 78.2676C159.689 79.4639 156.661 80.062 153.268 80.062ZM146.383 68.4165C146.383 70.2231 147.042 71.627 148.361 72.6279C149.703 73.6289 151.522 74.1294 153.817 74.1294C157.504 74.1294 160.69 73.1162 163.375 71.0898C166.085 69.0635 167.44 66.5977 167.44 63.6924V60.6162C167.123 60.8604 166.696 61.0679 166.158 61.2388C165.621 61.3853 164.84 61.5317 163.815 61.6782C162.789 61.8003 161.874 61.8979 161.068 61.9712C160.287 62.0444 158.993 62.1543 157.186 62.3008C155.404 62.4473 153.951 62.5693 152.828 62.667C148.531 63.082 146.383 64.9985 146.383 68.4165Z" fill="#141414"/>
<path d="M194.137 40.0352C196.139 39.3027 198.202 38.9365 200.326 38.9365C202.45 38.9365 204.513 39.3027 206.515 40.0352C208.517 40.7676 210.36 41.8418 212.045 43.2578C213.729 44.6738 215.084 46.5659 216.11 48.9341C217.135 51.2778 217.648 53.9268 217.648 56.8809V79H211.056V58.0894C211.056 53.6948 210.092 50.4111 208.163 48.2383C206.259 46.041 203.646 44.9424 200.326 44.9424C197.006 44.9424 194.381 46.0532 192.452 48.2749C190.548 50.4722 189.596 53.7681 189.596 58.1626V79H183.004V56.8809C183.004 53.9268 183.517 51.2778 184.542 48.9341C185.568 46.5659 186.923 44.6738 188.607 43.2578C190.292 41.8418 192.135 40.7676 194.137 40.0352Z" fill="#141414"/>
<path d="M276.608 59.4077C276.608 62.5815 276.083 65.4868 275.033 68.1235C274.008 70.7603 272.604 72.9453 270.822 74.6787C269.039 76.3877 266.989 77.7183 264.669 78.6704C262.35 79.5981 259.884 80.062 257.272 80.062C254.659 80.062 252.181 79.5981 249.838 78.6704C247.518 77.7183 245.468 76.3877 243.685 74.6787C241.927 72.9697 240.524 70.7969 239.474 68.1602C238.424 65.5234 237.899 62.606 237.899 59.4077C237.899 56.2339 238.424 53.3408 239.474 50.7285C240.524 48.1162 241.927 45.9678 243.685 44.2832C245.468 42.5742 247.518 41.2559 249.838 40.3281C252.181 39.4004 254.659 38.9365 257.272 38.9365C259.884 38.9365 262.35 39.4004 264.669 40.3281C266.989 41.2314 269.039 42.5376 270.822 44.2466C272.604 45.9312 274.008 48.0796 275.033 50.6919C276.083 53.3042 276.608 56.2095 276.608 59.4077ZM244.747 59.5176C244.747 64.1318 245.944 67.6963 248.336 70.2109C250.729 72.7256 253.707 73.9829 257.272 73.9829C260.836 73.9829 263.815 72.7256 266.207 70.2109C268.6 67.6963 269.796 64.1318 269.796 59.5176C269.796 54.7568 268.612 51.1558 266.244 48.7144C263.876 46.2485 260.885 45.0156 257.272 45.0156C253.658 45.0156 250.668 46.2485 248.3 48.7144C245.931 51.1558 244.747 54.7568 244.747 59.5176Z" fill="#141414"/>
<path d="M299.496 92.0371C294.174 92.0371 289.913 90.9141 286.715 88.668C283.517 86.4463 281.832 83.2236 281.661 79H288.326C288.595 83.6387 292.318 85.958 299.496 85.958C301.058 85.958 302.499 85.7871 303.817 85.4453C305.136 85.1035 306.356 84.5542 307.479 83.7974C308.602 83.0405 309.481 81.9785 310.116 80.6113C310.751 79.2686 311.068 77.6816 311.068 75.8506V71.4927C309.603 73.3237 307.748 74.7886 305.502 75.8872C303.256 76.9614 300.887 77.4985 298.397 77.4985C296.151 77.4985 293.978 77.0713 291.879 76.2168C289.803 75.3623 287.924 74.1538 286.239 72.5913C284.579 71.0288 283.248 69.0146 282.247 66.5488C281.246 64.0586 280.746 61.312 280.746 58.3091C280.746 55.2329 281.259 52.4497 282.284 49.9595C283.334 47.4692 284.738 45.4307 286.495 43.8438C288.253 42.2568 290.243 41.0483 292.465 40.2183C294.711 39.3638 297.054 38.9365 299.496 38.9365C304.916 38.9365 309.298 40.6943 312.643 44.21C315.988 47.7012 317.66 52.2178 317.66 57.7598V76.2168C317.66 78.8535 317.159 81.1973 316.158 83.248C315.157 85.3232 313.802 86.9834 312.094 88.2285C310.385 89.4736 308.456 90.4136 306.307 91.0483C304.183 91.7075 301.913 92.0371 299.496 92.0371ZM287.814 58.3823C287.814 62.4595 288.937 65.6577 291.183 67.9771C293.453 70.272 296.127 71.4194 299.203 71.4194C300.741 71.4194 302.206 71.1631 303.597 70.6504C304.989 70.1133 306.259 69.332 307.406 68.3066C308.578 67.2568 309.506 65.8652 310.189 64.1318C310.873 62.3984 311.215 60.4331 311.215 58.2358C311.215 53.9146 310.104 50.6309 307.882 48.3848C305.685 46.1387 302.889 45.0156 299.496 45.0156C296.078 45.0156 293.27 46.1509 291.073 48.4214C288.9 50.6919 287.814 54.0122 287.814 58.3823Z" fill="#141414"/>
<path fill-rule="evenodd" clip-rule="evenodd" d="M214.645 91.0117H216.769C221.798 91.0117 225.631 89.6567 228.268 86.9468C230.929 84.2368 232.26 80.3184 232.26 75.1914V39.9985H225.668V75.1182C225.668 78.7559 224.85 81.3315 223.214 82.8452C221.603 84.3833 219.125 85.1523 215.78 85.1523H214.645V91.0117Z" fill="#141414"/>
<path d="M224.459 30.6235C224.459 29.3784 224.899 28.3164 225.778 27.4375C226.681 26.5586 227.743 26.1191 228.964 26.1191C230.136 26.1191 231.161 26.5708 232.04 27.4741C232.943 28.353 233.395 29.4028 233.395 30.6235C233.395 31.8931 232.943 32.9795 232.04 33.8828C231.161 34.7617 230.136 35.2012 228.964 35.2012C227.743 35.2012 226.681 34.7617 225.778 33.8828C224.899 32.9795 224.459 31.8931 224.459 30.6235Z" fill="#8400FF"/>
<path d="M40.1859 81.2857C33.5773 81.2857 27.0707 79.6559 21.2424 76.5406C15.4141 73.4254 10.4441 68.9208 6.77255 63.4259C3.10101 57.9311 0.841273 51.6155 0.193516 45.0387C-0.454241 38.462 0.529974 31.8269 3.05898 25.7214C5.58798 19.6158 9.58372 14.2282 14.6922 10.0357C19.8008 5.84326 25.8644 2.97538 32.346 1.6861C38.8277 0.396828 45.5272 0.725956 51.8513 2.64433C58.1753 4.56271 63.9286 8.01112 68.6016 12.6841L52.1737 29.112C50.2023 27.1406 47.7751 25.6858 45.1072 24.8765C42.4393 24.0672 39.6129 23.9283 36.8785 24.4723C34.1441 25.0162 31.586 26.226 29.4308 27.9947C27.2757 29.7634 25.59 32.0363 24.5231 34.6121C23.4561 37.1878 23.0409 39.987 23.3142 42.7616C23.5875 45.5361 24.5408 48.2005 26.0897 50.5186C27.6386 52.8367 29.7354 54.7371 32.1942 56.0513C34.6529 57.3656 37.3979 58.0532 40.1859 58.0532V81.2857Z" fill="#141414"/>
<path d="M39.5577 34.7257C46.1663 34.7257 52.6729 36.3556 58.5012 39.4708C64.3295 42.5861 69.2995 47.0907 72.971 52.5855C76.6426 58.0804 78.9023 64.3959 79.5501 70.9727C80.1978 77.5495 79.2136 84.1845 76.6846 90.2901C74.1556 96.3957 70.1599 101.783 65.0514 105.976C59.9428 110.168 53.8792 113.036 47.3976 114.325C40.9159 115.615 34.2164 115.286 27.8923 113.367C21.5683 111.449 15.815 108 11.142 103.327L27.5699 86.8994C29.5413 88.8708 31.9685 90.3256 34.6364 91.135C37.3043 91.9443 40.1307 92.0831 42.8651 91.5392C45.5995 90.9953 48.1576 89.7854 50.3128 88.0167C52.4679 86.248 54.1536 83.9752 55.2205 81.3994C56.2874 78.8236 56.7027 76.0245 56.4294 73.2499C56.1561 70.4753 55.2028 67.811 53.6539 65.4929C52.1049 63.1747 50.0082 61.2744 47.5494 59.9601C45.0906 58.6459 42.3457 57.9583 39.5577 57.9583V34.7257Z" fill="#141414"/>
</svg>
